<?xml version="1.0" standalone="no"?>
<!DOCTYPE svg PUBLIC "-//W3C//DTD SVG 20010904//EN"
 "http://www.w3.org/TR/2001/REC-SVG-20010904/DTD/svg10.dtd">
<svg version="1.0" xmlns="http://www.w3.org/2000/svg"
 width="1024.000000pt" height="1024.000000pt" viewBox="0 0 1024.000000 1024.000000"
 preserveAspectRatio="xMidYMid meet">
<metadata>
Created by potrace 1.11, written by Peter Selinger 2001-2013
</metadata>
<g transform="translate(0.000000,1024.000000) scale(0.100000,-0.100000)"
fill="#000000" stroke="none">
<path d="M1779 9066 c-2 -2 -21 -7 -41 -10 -160 -25 -325 -93 -428 -175 -82
-65 -91 -75 -135 -141 -69 -106 -90 -175 -90 -305 1 -125 6 -160 39 -230 44
-93 114 -145 291 -215 116 -46 174 -75 240 -120 143 -98 239 -267 290 -510 1
-3 4 -27 9 -53 4 -27 9 -57 11 -68 18 -92 22 -373 10 -659 -8 -208 -11 -286
-20 -515 -3 -88 -8 -207 -10 -265 -2 -58 -7 -177 -10 -265 -3 -88 -8 -214 -10
-280 -3 -66 -7 -172 -9 -235 -3 -63 -8 -189 -11 -280 -3 -91 -8 -205 -10 -255
-3 -49 -7 -164 -10 -255 -3 -91 -7 -208 -10 -260 -2 -52 -7 -174 -10 -270 -20
-565 -45 -797 -117 -1059 -83 -305 -195 -460 -438 -606 -127 -76 -170 -113
-202 -172 -35 -64 -49 -130 -49 -223 1 -100 8 -144 33 -210 78 -201 284 -348
553 -395 62 -11 161 -13 445 -9 201 2 408 6 460 9 52 2 151 7 220 10 69 3 152
8 185 10 184 10 715 19 1170 19 577 -1 865 -8 1205 -29 307 -19 1063 -27 1235
-12 204 17 267 24 345 37 30 5 71 11 90 14 19 3 46 8 60 11 14 3 41 8 60 11
62 10 232 54 350 91 699 218 1215 639 1511 1233 42 86 97 209 103 235 1 6 19
62 40 125 20 63 39 129 42 145 3 17 9 46 14 65 5 19 12 51 15 70 6 37 15 92
21 124 17 97 24 406 12 526 -17 166 -84 394 -163 552 -50 100 -170 285 -232
358 -148 174 -326 332 -509 452 -95 62 -274 158 -322 172 -43 14 -187 99 -210
125 -37 41 -51 83 -49 147 3 86 36 143 131 228 147 131 238 221 288 283 199
250 347 608 383 928 3 28 8 68 10 90 7 60 7 277 0 342 -17 155 -23 186 -69
358 -28 109 -121 314 -179 400 -153 224 -320 383 -552 522 -80 48 -246 133
-260 133 -1 0 -19 7 -39 15 -20 8 -38 15 -41 15 -3 1 -26 10 -51 21 -111 47
-471 136 -624 154 -30 3 -62 8 -70 10 -8 2 -42 7 -75 10 -33 4 -71 8 -85 10
-87 11 -331 20 -550 19 -234 0 -330 -3 -600 -20 -52 -3 -122 -7 -155 -9 -56
-2 -173 -12 -255 -20 -139 -15 -316 -20 -655 -20 -386 1 -578 7 -985 30 -99 6
-211 11 -495 20 -93 3 -215 8 -270 10 -145 7 -762 15 -766 11z m3421 -1192
c212 -48 365 -176 478 -399 59 -116 113 -313 127 -465 4 -36 9 -76 11 -90 10
-58 4 -368 -10 -465 -3 -16 -8 -52 -11 -80 -7 -54 -42 -198 -55 -230 -83 -198
-163 -299 -301 -380 -43 -25 -136 -64 -169 -70 -3 -1 -18 -4 -35 -8 -16 -4
-41 -10 -55 -13 -14 -3 -83 -7 -153 -9 -149 -3 -206 10 -267 62 -48 41 -77
115 -89 221 -9 90 -7 1624 3 1665 48 199 143 273 356 276 60 1 125 -5 170 -15z
m116 -3350 c379 -66 611 -303 718 -729 8 -33 18 -76 21 -95 3 -19 7 -46 10
-60 22 -117 35 -476 20 -572 -3 -21 -7 -55 -10 -75 -33 -235 -108 -414 -229
-542 -93 -98 -213 -166 -362 -203 -125 -31 -399 -33 -489 -3 -178 58 -272 274
-311 715 -16 184 -27 1097 -14 1240 4 52 34 142 60 185 40 65 115 115 208 140
64 17 279 16 378 -1z"/>
</g>
</svg>
